<svg xmlns="http://www.w3.org/2000/svg" xml:space="preserve" height="24" width="24" viewBox="0 0 50 50" id="grid">
  <path d="M11 1H1v10h10V1zM3 3H9V9H3V3zM24 1H14v10h10V1zM16 3H22V9H16V3zM37 1H27v10h10V1zM29 3H35V9H29V3zM50 1H40v10h10V1zM42 3H48V9H42V3zM11 14H1v10h10V14zM3 16H9V24H3V16zM24 14H14v10h10V14zM16 16H22V24H16V16zM37 14H27v10h10V14zM29 16H35V24H29V16zM50 14H40v10h10V14zM42 16H48V24H42V16zM11 27H1v10h10V27zM3 29H9V37H3V29zM24 27H14v10h10V27zM16 29H22V37H16V29zM37 27H27v10h10V27zM29 29H35V37H29V29zM50 27H40v10h10V27zM42 29H48V37H42V29zM11 40H1v10h10V40zM3 42H9V50H3V42zM24 40H14v10h10V40zM16 42H22V50H16V42zM37 40H27v10h10V40zM29 42H35V50H29V42zM50 40H40v10h10V40zM42 42H48V50H42V42z"/>
</svg>