<svg xmlns="http://www.w3.org/2000/svg" width="17" height="17" viewBox="0 0 17 17" fill="none">
  <g clip-path="url(#clip0_10_142)">
    <g clip-path="url(#clip1_10_142)">
      <path d="M8.58984 8.33333C8.58984 8.20072 8.53717 8.07354 8.4434 7.97978C8.34963 7.88601 8.22245 7.83333 8.08984 7.83333C7.95724 7.83333 7.83006 7.88601 7.73629 7.97978C7.64252 8.07354 7.58984 8.20072 7.58984 8.33333V12.3333C7.58984 12.4659 7.64252 12.5931 7.73629 12.6869C7.83006 12.7807 7.95724 12.8333 8.08984 12.8333C8.22245 12.8333 8.34963 12.7807 8.4434 12.6869C8.53717 12.5931 8.58984 12.4659 8.58984 12.3333V8.33333Z" fill="#373735"></path>
      <path fill-rule="evenodd" clip-rule="evenodd" d="M8.09001 1.83333C4.13201 1.83333 0.92334 5.042 0.92334 9C0.92334 12.958 4.13201 16.1667 8.09001 16.1667C12.048 16.1667 15.2567 12.958 15.2567 9C15.2567 5.042 12.048 1.83333 8.09001 1.83333ZM1.92334 9C1.92334 7.36449 2.57304 5.79598 3.72951 4.6395C4.88599 3.48303 6.4545 2.83333 8.09001 2.83333C9.72551 2.83333 11.294 3.48303 12.4505 4.6395C13.607 5.79598 14.2567 7.36449 14.2567 9C14.2567 10.6355 13.607 12.204 12.4505 13.3605C11.294 14.517 9.72551 15.1667 8.09001 15.1667C6.4545 15.1667 4.88599 14.517 3.72951 13.3605C2.57304 12.204 1.92334 10.6355 1.92334 9Z" fill="#373735"></path>
      <path d="M8.75667 6.33332C8.75667 6.51013 8.68644 6.6797 8.56141 6.80473C8.43639 6.92975 8.26682 6.99999 8.09001 6.99999C7.9132 6.99999 7.74363 6.92975 7.6186 6.80473C7.49358 6.6797 7.42334 6.51013 7.42334 6.33332C7.42334 6.15651 7.49358 5.98694 7.6186 5.86192C7.74363 5.73689 7.9132 5.66666 8.09001 5.66666C8.26682 5.66666 8.43639 5.73689 8.56141 5.86192C8.68644 5.98694 8.75667 6.15651 8.75667 6.33332Z" fill="#373735"></path>
    </g>
  </g>
  <defs>
    <clipPath id="clip0_10_142">
      <rect width="16" height="16" fill="white" transform="translate(0.432129 0.566223)"></rect>
    </clipPath>
    <clipPath id="clip1_10_142">
      <rect width="16" height="16" fill="white" transform="translate(0.0898438 1)"></rect>
    </clipPath>
  </defs>
</svg>