<svg width="24" height="24" viewBox="0 0 24 24" fill="none" xmlns="http://www.w3.org/2000/svg">
              <g clip-path="url(#clip0_1_8098)">
              <path class="cust_svgs_paths" d="M17.472 2.37501e-08H23.616C23.6664 -1.18028e-05 23.7164 0.00991356 23.763 0.0292092C23.8096 0.0485049 23.8519 0.0767926 23.8876 0.112456C23.9232 0.148119 23.9515 0.19046 23.9708 0.237057C23.9901 0.283655 24 0.333597 24 0.38403V6.52801C24 6.57844 23.9901 6.62839 23.9708 6.67498C23.9515 6.72158 23.9232 6.76391 23.8876 6.79957C23.8519 6.83523 23.8096 6.86352 23.763 6.88281C23.7164 6.9021 23.6664 6.91202 23.616 6.912H17.472C17.4216 6.91202 17.3717 6.9021 17.3251 6.88281C17.2785 6.86352 17.2361 6.83523 17.2005 6.79957C17.1648 6.76391 17.1365 6.72158 17.1172 6.67498C17.0979 6.62839 17.088 6.57844 17.088 6.52801V0.38403C17.088 0.333599 17.0979 0.283658 17.1172 0.237061C17.1365 0.190463 17.1648 0.148123 17.2004 0.112459C17.2361 0.0767948 17.2784 0.0485065 17.325 0.0292103C17.3716 0.00991404 17.4216 -1.18061e-05 17.472 2.37501e-08ZM17.856 6.14403H23.232V0.768015H17.856L17.856 6.14403ZM9.40798 2.37501e-08H15.552C15.6024 -1.77158e-05 15.6524 0.00990233 15.699 0.0291931C15.7456 0.0484839 15.7879 0.0767671 15.8236 0.112427C15.8592 0.148087 15.8875 0.190424 15.9068 0.237019C15.9261 0.283615 15.936 0.333554 15.936 0.383985V6.52801C15.936 6.57844 15.9261 6.62839 15.9068 6.67498C15.8875 6.72158 15.8592 6.76391 15.8236 6.79957C15.7879 6.83523 15.7456 6.86352 15.699 6.88281C15.6524 6.9021 15.6024 6.91202 15.552 6.912H9.40803C9.3576 6.91202 9.30766 6.9021 9.26106 6.88281C9.21447 6.86352 9.17213 6.83523 9.13647 6.79957C9.10081 6.76391 9.07253 6.72158 9.05324 6.67498C9.03395 6.62839 9.02403 6.57844 9.02404 6.52801V0.38403C9.02402 0.333599 9.03394 0.283658 9.05322 0.237061C9.07251 0.190463 9.10078 0.148123 9.13644 0.112459C9.1721 0.0767948 9.21443 0.0485065 9.26102 0.0292103C9.30761 0.00991404 9.35755 -1.18061e-05 9.40798 2.37501e-08ZM9.79202 6.14403H15.168V0.768015H9.79197L9.79202 6.14403ZM1.34398 2.37501e-08H7.48801C7.53844 -1.77158e-05 7.58839 0.00990233 7.63498 0.0291931C7.68158 0.0484839 7.72391 0.0767671 7.75957 0.112427C7.79523 0.148087 7.82351 0.190424 7.84281 0.237019C7.8621 0.283615 7.87202 0.333554 7.872 0.383985V6.52801C7.87202 6.57844 7.8621 6.62839 7.84281 6.67498C7.82351 6.72158 7.79523 6.76391 7.75957 6.79957C7.72391 6.83523 7.68158 6.86352 7.63498 6.88281C7.58839 6.9021 7.53844 6.91202 7.48801 6.912H1.34403C1.2936 6.91202 1.24366 6.9021 1.19706 6.88281C1.15047 6.86352 1.10813 6.83523 1.07247 6.79957C1.03681 6.76391 1.00853 6.72158 0.989237 6.67498C0.969946 6.62839 0.960028 6.57844 0.960045 6.52801V0.38403C0.960022 0.333599 0.969934 0.283658 0.98922 0.237061C1.0085 0.190463 1.03678 0.148123 1.07244 0.112459C1.1081 0.0767948 1.15043 0.0485065 1.19702 0.0292103C1.24361 0.00991404 1.29355 -1.18061e-05 1.34398 2.37501e-08ZM1.72801 6.14403H7.10398V0.768015H1.72797L1.72801 6.14403ZM17.472 8.44803H23.616C23.6664 8.44802 23.7164 8.45794 23.763 8.47723C23.8096 8.49653 23.8519 8.52481 23.8876 8.56047C23.9232 8.59613 23.9515 8.63846 23.9708 8.68506C23.9901 8.73165 24 8.78159 24 8.83202V14.976C24 15.0264 23.9901 15.0764 23.9708 15.123C23.9515 15.1696 23.9232 15.2119 23.8876 15.2476C23.8519 15.2832 23.8096 15.3115 23.763 15.3308C23.7164 15.3501 23.6664 15.36 23.616 15.36H17.472C17.4216 15.36 17.3717 15.3501 17.3251 15.3308C17.2785 15.3115 17.2361 15.2832 17.2005 15.2476C17.1648 15.2119 17.1365 15.1696 17.1172 15.123C17.0979 15.0764 17.088 15.0264 17.088 14.976V8.83202C17.088 8.78159 17.0979 8.73165 17.1172 8.68506C17.1365 8.63847 17.1648 8.59613 17.2005 8.56047C17.2361 8.52481 17.2784 8.49653 17.325 8.47724C17.3716 8.45794 17.4216 8.44802 17.472 8.44803ZM17.856 14.592H23.232V9.216H17.856L17.856 14.592ZM9.40798 8.44803H15.552C15.6024 8.44801 15.6524 8.45793 15.699 8.47722C15.7456 8.49651 15.7879 8.5248 15.8236 8.56046C15.8592 8.59612 15.8875 8.63845 15.9068 8.68505C15.9261 8.73164 15.936 8.78158 15.936 8.83202V14.976C15.936 15.0264 15.9261 15.0764 15.9068 15.123C15.8875 15.1696 15.8592 15.2119 15.8236 15.2476C15.7879 15.2832 15.7456 15.3115 15.699 15.3308C15.6524 15.3501 15.6024 15.36 15.552 15.36H9.40803C9.3576 15.36 9.30766 15.3501 9.26106 15.3308C9.21447 15.3115 9.17213 15.2832 9.13647 15.2476C9.10081 15.2119 9.07253 15.1696 9.05324 15.123C9.03395 15.0764 9.02403 15.0264 9.02404 14.976V8.83202C9.02403 8.78159 9.03395 8.73165 9.05323 8.68506C9.07252 8.63847 9.1008 8.59613 9.13646 8.56047C9.17211 8.52481 9.21444 8.49653 9.26103 8.47724C9.30762 8.45794 9.35756 8.44802 9.40798 8.44803ZM9.79202 14.592H15.168V9.216H9.79197L9.79202 14.592ZM1.34398 8.44803H7.48801C7.53844 8.44801 7.58839 8.45793 7.63498 8.47722C7.68158 8.49651 7.72391 8.5248 7.75957 8.56046C7.79523 8.59612 7.82351 8.63845 7.84281 8.68505C7.8621 8.73164 7.87202 8.78158 7.872 8.83202V14.976C7.87202 15.0264 7.8621 15.0764 7.84281 15.123C7.82351 15.1696 7.79523 15.2119 7.75957 15.2476C7.72391 15.2832 7.68158 15.3115 7.63498 15.3308C7.58839 15.3501 7.53844 15.36 7.48801 15.36H1.34403C1.2936 15.36 1.24366 15.3501 1.19706 15.3308C1.15047 15.3115 1.10813 15.2832 1.07247 15.2476C1.03681 15.2119 1.00853 15.1696 0.989237 15.123C0.969946 15.0764 0.960028 15.0264 0.960045 14.976V8.83202C0.960028 8.78159 0.969944 8.73165 0.989231 8.68506C1.00852 8.63847 1.0368 8.59613 1.07245 8.56047C1.10811 8.52481 1.15044 8.49653 1.19703 8.47724C1.24362 8.45794 1.29356 8.44802 1.34398 8.44803ZM1.72801 14.592H7.10398V9.216H1.72797L1.72801 14.592Z" fill="#000"></path>
              <mask id="mask0_1_8098" style="mask-type:alpha" maskUnits="userSpaceOnUse" x="0" y="16" width="24" height="8">
              <rect width="23.04" height="7.68" transform="matrix(-1 0 0 1 24 16.3201)" fill="#000"></rect>
              </mask>
              <g mask="url(#mask0_1_8098)">
              <path class="cust_svgs_paths" d="M17.472 8.64014H23.616C23.6664 8.64012 23.7164 8.65005 23.763 8.66935C23.8096 8.68864 23.8519 8.71693 23.8876 8.75259C23.9232 8.78826 23.9515 8.8306 23.9708 8.87719C23.9901 8.92379 24 8.97373 24 9.02417V15.1682C24 15.2186 23.9901 15.2685 23.9708 15.3151C23.9515 15.3617 23.9232 15.404 23.8876 15.4397C23.8519 15.4754 23.8096 15.5037 23.763 15.5229C23.7164 15.5422 23.6664 15.5522 23.616 15.5521H17.472C17.4216 15.5522 17.3717 15.5422 17.3251 15.5229C17.2785 15.5037 17.2361 15.4754 17.2005 15.4397C17.1648 15.404 17.1365 15.3617 17.1172 15.3151C17.0979 15.2685 17.088 15.2186 17.088 15.1682V9.02417C17.088 8.97374 17.0979 8.9238 17.1172 8.8772C17.1365 8.8306 17.1648 8.78826 17.2004 8.7526C17.2361 8.71693 17.2784 8.68864 17.325 8.66935C17.3716 8.65005 17.4216 8.64012 17.472 8.64014ZM17.856 14.7842H23.232V9.40815H17.856L17.856 14.7842ZM9.40798 8.64014H15.552C15.6024 8.64012 15.6524 8.65004 15.699 8.66933C15.7456 8.68862 15.7879 8.7169 15.8236 8.75256C15.8592 8.78822 15.8875 8.83056 15.9068 8.87716C15.9261 8.92375 15.936 8.97369 15.936 9.02412V15.1682C15.936 15.2186 15.9261 15.2685 15.9068 15.3151C15.8875 15.3617 15.8592 15.404 15.8236 15.4397C15.7879 15.4754 15.7456 15.5037 15.699 15.5229C15.6524 15.5422 15.6024 15.5522 15.552 15.5521H9.40803C9.3576 15.5522 9.30766 15.5422 9.26106 15.5229C9.21447 15.5037 9.17213 15.4754 9.13647 15.4397C9.10081 15.404 9.07253 15.3617 9.05324 15.3151C9.03395 15.2685 9.02403 15.2186 9.02404 15.1682V9.02417C9.02402 8.97374 9.03394 8.9238 9.05322 8.8772C9.07251 8.8306 9.10078 8.78826 9.13644 8.7526C9.1721 8.71693 9.21443 8.68864 9.26102 8.66935C9.30761 8.65005 9.35755 8.64012 9.40798 8.64014ZM9.79202 14.7842H15.168V9.40815H9.79197L9.79202 14.7842ZM1.34398 8.64014H7.48801C7.53844 8.64012 7.58839 8.65004 7.63498 8.66933C7.68158 8.68862 7.72391 8.7169 7.75957 8.75256C7.79523 8.78822 7.82351 8.83056 7.84281 8.87716C7.8621 8.92375 7.87202 8.97369 7.872 9.02412V15.1682C7.87202 15.2186 7.8621 15.2685 7.84281 15.3151C7.82351 15.3617 7.79523 15.404 7.75957 15.4397C7.72391 15.4754 7.68158 15.5037 7.63498 15.5229C7.58839 15.5422 7.53844 15.5522 7.48801 15.5521H1.34403C1.2936 15.5522 1.24366 15.5422 1.19706 15.5229C1.15047 15.5037 1.10813 15.4754 1.07247 15.4397C1.03681 15.404 1.00853 15.3617 0.989237 15.3151C0.969946 15.2685 0.960028 15.2186 0.960045 15.1682V9.02417C0.960022 8.97374 0.969934 8.9238 0.98922 8.8772C1.0085 8.8306 1.03678 8.78826 1.07244 8.7526C1.1081 8.71693 1.15043 8.68864 1.19702 8.66935C1.24361 8.65005 1.29355 8.64012 1.34398 8.64014ZM1.72801 14.7842H7.10398V9.40815H1.72797L1.72801 14.7842ZM17.472 17.0882H23.616C23.6664 17.0882 23.7164 17.0981 23.763 17.1174C23.8096 17.1367 23.8519 17.1649 23.8876 17.2006C23.9232 17.2363 23.9515 17.2786 23.9708 17.3252C23.9901 17.3718 24 17.4217 24 17.4722V23.6161C24 23.6666 23.9901 23.7165 23.9708 23.7631C23.9515 23.8097 23.9232 23.852 23.8876 23.8877C23.8519 23.9234 23.8096 23.9516 23.763 23.9709C23.7164 23.9902 23.6664 24.0001 23.616 24.0001H17.472C17.4216 24.0001 17.3717 23.9902 17.3251 23.9709C17.2785 23.9516 17.2361 23.9234 17.2005 23.8877C17.1648 23.852 17.1365 23.8097 17.1172 23.7631C17.0979 23.7165 17.088 23.6666 17.088 23.6161V17.4722C17.088 17.4217 17.0979 17.3718 17.1172 17.3252C17.1365 17.2786 17.1648 17.2363 17.2005 17.2006C17.2361 17.165 17.2784 17.1367 17.325 17.1174C17.3716 17.0981 17.4216 17.0882 17.472 17.0882ZM17.856 23.2322H23.232V17.8561H17.856L17.856 23.2322ZM9.40798 17.0882H15.552C15.6024 17.0881 15.6524 17.0981 15.699 17.1174C15.7456 17.1367 15.7879 17.1649 15.8236 17.2006C15.8592 17.2363 15.8875 17.2786 15.9068 17.3252C15.9261 17.3718 15.936 17.4217 15.936 17.4722V23.6161C15.936 23.6666 15.9261 23.7165 15.9068 23.7631C15.8875 23.8097 15.8592 23.852 15.8236 23.8877C15.7879 23.9234 15.7456 23.9516 15.699 23.9709C15.6524 23.9902 15.6024 24.0001 15.552 24.0001H9.40803C9.3576 24.0001 9.30766 23.9902 9.26106 23.9709C9.21447 23.9516 9.17213 23.9234 9.13647 23.8877C9.10081 23.852 9.07253 23.8097 9.05324 23.7631C9.03395 23.7165 9.02403 23.6666 9.02404 23.6161V17.4722C9.02403 17.4217 9.03395 17.3718 9.05323 17.3252C9.07252 17.2786 9.1008 17.2363 9.13646 17.2006C9.17211 17.165 9.21444 17.1367 9.26103 17.1174C9.30762 17.0981 9.35756 17.0882 9.40798 17.0882ZM9.79202 23.2322H15.168V17.8561H9.79197L9.79202 23.2322ZM1.34398 17.0882H7.48801C7.53844 17.0881 7.58839 17.0981 7.63498 17.1174C7.68158 17.1367 7.72391 17.1649 7.75957 17.2006C7.79523 17.2363 7.82351 17.2786 7.84281 17.3252C7.8621 17.3718 7.87202 17.4217 7.872 17.4722V23.6161C7.87202 23.6666 7.8621 23.7165 7.84281 23.7631C7.82351 23.8097 7.79523 23.852 7.75957 23.8877C7.72391 23.9234 7.68158 23.9516 7.63498 23.9709C7.58839 23.9902 7.53844 24.0001 7.48801 24.0001H1.34403C1.2936 24.0001 1.24366 23.9902 1.19706 23.9709C1.15047 23.9516 1.10813 23.9234 1.07247 23.8877C1.03681 23.852 1.00853 23.8097 0.989237 23.7631C0.969946 23.7165 0.960028 23.6666 0.960045 23.6161V17.4722C0.960028 17.4217 0.969944 17.3718 0.989231 17.3252C1.00852 17.2786 1.0368 17.2363 1.07245 17.2006C1.10811 17.165 1.15044 17.1367 1.19703 17.1174C1.24362 17.0981 1.29356 17.0882 1.34398 17.0882ZM1.72801 23.2322H7.10398V17.8561H1.72797L1.72801 23.2322Z" fill="#000"></path>
              </g>
              </g>
              <defs>
              <clipPath id="clip0_1_8098">
              <rect width="23.04" height="24" fill="white" transform="matrix(-1 0 0 1 24 0)"></rect>
              </clipPath>
              </defs>
            </svg>