<svg width="25" height="24" viewBox="0 0 25 24" fill="none" xmlns="http://www.w3.org/2000/svg">
  <g clip-path="url(#clip0_1_8477)">
    <path class="cust_svgs_paths" d="M1.54004 24H9.54004C10.367 24 11.04 23.327 11.04 22.5V1.5C11.04 0.673 10.367 0 9.54004 0H1.54004C0.713039 0 0.0400391 0.673 0.0400391 1.5V22.5C0.0400391 23.327 0.713039 24 1.54004 24ZM9.54004 1C9.67265 1 9.79982 1.05268 9.89359 1.14645C9.98736 1.24021 10.04 1.36739 10.04 1.5V22.5C10.04 22.6326 9.98736 22.7598 9.89359 22.8536C9.79982 22.9473 9.67265 23 9.54004 23H1.54004C1.40743 23 1.28025 22.9473 1.18649 22.8536C1.09272 22.7598 1.04004 22.6326 1.04004 22.5V1.5C1.04004 1.36739 1.09272 1.24021 1.18649 1.14645C1.28025 1.05268 1.40743 1 1.54004 1H9.54004ZM14.54 24H22.54C23.367 24 24.04 23.327 24.04 22.5V1.5C24.04 0.673 23.367 0 22.54 0H14.54C13.713 0 13.04 0.673 13.04 1.5V22.5C13.04 23.327 13.713 24 14.54 24ZM22.54 1C22.6726 1 22.7998 1.05268 22.8936 1.14645C22.9874 1.24021 23.04 1.36739 23.04 1.5V22.5C23.04 22.6326 22.9874 22.7598 22.8936 22.8536C22.7998 22.9473 22.6726 23 22.54 23H14.54C14.4074 23 14.2803 22.9473 14.1865 22.8536C14.0927 22.7598 14.04 22.6326 14.04 22.5V1.5C14.04 1.36739 14.0927 1.24021 14.1865 1.14645C14.2803 1.05268 14.4074 1 14.54 1H22.54Z" fill="#000"></path>
  </g>
  <defs>
    <clipPath id="clip0_1_8477">
      <rect width="24" height="24" fill="white" transform="matrix(-1 0 0 1 24.04 0)"></rect>
    </clipPath>
  </defs>
</svg>